<mxfile host="65bd71144e">
    <diagram id="t8QoFsj8MZgXzhcuyan1" name="Page-1">
        <mxGraphModel dx="473" dy="1058" grid="1" gridSize="10" guides="1" tooltips="1" connect="1" arrows="1" fold="1" page="1" pageScale="1" pageWidth="2339" pageHeight="3300" math="0" shadow="0">
            <root>
                <mxCell id="0"/>
                <mxCell id="1" parent="0"/>
                <mxCell id="2" value="DE-322" style="rounded=1;fontFamily=Alegreya Sans;fontSource=https%3A%2F%2Ffonts.googleapis.com%2Fcss%3Ffamily%3DAlegreya%2BSans;whiteSpace=wrap;" parent="1" vertex="1">
                    <mxGeometry x="360" y="210" width="60" height="30" as="geometry"/>
                </mxCell>
                <mxCell id="3" value="CH-023" style="rounded=1;fontFamily=Alegreya Sans;fontSource=https%3A%2F%2Ffonts.googleapis.com%2Fcss%3Ffamily%3DAlegreya%2BSans;whiteSpace=wrap;" parent="1" vertex="1">
                    <mxGeometry x="360" y="130" width="60" height="30" as="geometry"/>
                </mxCell>
                <mxCell id="4" value="DE-588" style="rounded=1;fontFamily=Alegreya Sans;fontSource=https%3A%2F%2Ffonts.googleapis.com%2Fcss%3Ffamily%3DAlegreya%2BSans;whiteSpace=wrap;" parent="1" vertex="1">
                    <mxGeometry x="360" y="290" width="60" height="30" as="geometry"/>
                </mxCell>
                <mxCell id="5" value="CH-003" style="rounded=1;fontFamily=Alegreya Sans;fontSource=https%3A%2F%2Ffonts.googleapis.com%2Fcss%3Ffamily%3DAlegreya%2BSans;whiteSpace=wrap;" parent="1" vertex="1">
                    <mxGeometry x="360" y="90" width="60" height="30" as="geometry"/>
                </mxCell>
                <mxCell id="6" value="CH-554" style="rounded=1;fontFamily=Alegreya Sans;fontSource=https%3A%2F%2Ffonts.googleapis.com%2Fcss%3Ffamily%3DAlegreya%2BSans;whiteSpace=wrap;" parent="1" vertex="1">
                    <mxGeometry x="360" y="170" width="60" height="30" as="geometry"/>
                </mxCell>
                <mxCell id="11" value="DE-400" style="rounded=1;fontFamily=Alegreya Sans;fontSource=https%3A%2F%2Ffonts.googleapis.com%2Fcss%3Ffamily%3DAlegreya%2BSans;whiteSpace=wrap;" parent="1" vertex="1">
                    <mxGeometry x="360" y="250" width="60" height="30" as="geometry"/>
                </mxCell>
                <mxCell id="12" value="DE-700" style="rounded=1;fontFamily=Alegreya Sans;fontSource=https%3A%2F%2Ffonts.googleapis.com%2Fcss%3Ffamily%3DAlegreya%2BSans;whiteSpace=wrap;" parent="1" vertex="1">
                    <mxGeometry x="360" y="330" width="60" height="30" as="geometry"/>
                </mxCell>
                <mxCell id="16" value=" FR-002" style="rounded=1;fontFamily=Alegreya Sans;fontSource=https%3A%2F%2Ffonts.googleapis.com%2Fcss%3Ffamily%3DAlegreya%2BSans;whiteSpace=wrap;" parent="1" vertex="1">
                    <mxGeometry x="360" y="370" width="60" height="30" as="geometry"/>
                </mxCell>
                <mxCell id="33" value="" style="endArrow=blockThin;html=1;fontFamily=Alegreya;fontSource=https%3A%2F%2Ffonts.googleapis.com%2Fcss%3Ffamily%3DAlegreya;endFill=1;" edge="1" parent="1">
                    <mxGeometry width="50" height="50" relative="1" as="geometry">
                        <mxPoint x="550" y="180" as="sourcePoint"/>
                        <mxPoint x="520" y="210" as="targetPoint"/>
                    </mxGeometry>
                </mxCell>
            </root>
        </mxGraphModel>
    </diagram>
</mxfile>
